ENGLISH SUBTITLES HARDCODED FOR NONE ENGLISH PARTS


Format : AVI
Format/Info : Audio Video Interleave
File size : 743 MiB
Duration : 1h 58mn
Overall bit rate : 876 Kbps
Writing application : MEncoder SVN-r29352(20090610-gcc4.3.3)
Writing library : MPlayer

Video
ID : 0
Format : MPEG-4 Visual
Format profile : AdvancedSimple@L5
Format settings, BVOP : Yes
Format settings, QPel : No
Format settings, GMC : No warppoints
Format settings, Matrix : Default (H.263)
Codec ID : XVID
Codec ID/Hint : XviD
Duration : 1h 58mn
Bit rate : 736 Kbps
Width : 640 pixels
Height : 360 pixels
Display aspect ratio : 16:9
Frame rate : 25.000 fps
Resolution : 24 bits
Colorimetry : 4:2:0
Scan type : Progressive
Bits/(Pixel*Frame) : 0.128
Stream size : 624 MiB (84%)
Writing library : XviD 1.2.1 (UTC 2008-12-04)

Audio
ID : 1
Format : MPEG Audio
Format version : Version 1
Format profile : Layer 3
Codec ID : 55
Codec ID/Hint : MP3
Duration : 1h 58mn
Bit rate mode : Constant
Bit rate : 128 Kbps
Channel(s) : 2 channels
Sampling rate : 44.1 KHz
Resolution : 16 bits
Video delay : 80ms
Stream size : 109 MiB (15%)
Alignment : Aligned on interleaves
Interleave, duration : 26 ms (0.65 video frame)
Interleave, preload duration : 522 ms
Writing library : LAME3.98

From the acclaimed director of IRMA VEP and SUMMER HOURS, Olivier Assayas, comes an explosive new work of astonishing scope; an epic portrayal of the notorious revolutionary and terrorist, CARLOS(played by Edgar Ramirez in the breakthrough performance of the year). A sensational hit of the Cannes and Telluride Film Festivals, CARLOS is a exciting, sexy, globe-spanning ride through the life of one of the most enigmatic, violent and fascinating personas of the 20th century. Ilich Ramirez Sanchez, for two decades, was one of the most wanted terrorists on the planet. Between 1974 and 1994, he lived several lives under various pseudonyms, weaving his way through the complexities of international politics of the period. Known to the world as Carlos the Jackal, his resume
of violent revolutionary acts led to notoriety of the most extreme kind
 
http://www.imdb.com/title/tt1321865/

NOTE-; Audio is mixed French,Spanish and English

screens
 
http://img258.imageshack.us/img258/8807/carlos3xvidviceavisnaps.jpg 
http://img208.imageshack.us/img208/8807/carlos3xvidviceavisnaps.jpg 
http://img440.imageshack.us/img440/8807/carlos3xvidviceavisnaps.jpg 
http://img87.imageshack.us/img87/8807/carlos3xvidviceavisnaps.jpg
 
http://img841.imageshack.us/img841/6864/carlos3xvidviceavithumb.jpg